<svg width="36" height="36" fill="none" xmlns="http://www.w3.org/2000/svg"><path d="m25.904 12.25 2.007 8.377a1.46 1.46 0 0 1-1.42 1.801H8.39a4.108 4.108 0 0 1-3.857-2.696l-.165-.449a.365.365 0 0 1 .343-.49h11.82c.14 0 .254-.114.254-.254 0-1.05-.851-1.9-1.9-1.9H6.271a4.108 4.108 0 0 1-3.858-2.696l-.148-.405a.365.365 0 0 1 .343-.49h11.23c.14 0 .254-.114.254-.254a1.9 1.9 0 0 0-1.9-1.9H4.168A4.108 4.108 0 0 1 .31 8.197l-.131-.36a.365.365 0 0 1 .343-.49H19.69a6.39 6.39 0 0 1 6.214 4.901Z" fill="url(#a)"/><path d="m33.01 14.743 2.815 12.087a1.46 1.46 0 0 1-1.423 1.792H15.524a4.108 4.108 0 0 1-3.914-2.86l-.19-.6a.548.548 0 0 1 .52-.714h17.24a1.46 1.46 0 0 0 1.419-1.804l-2.518-10.4a.548.548 0 0 1 .532-.677h.396a4.108 4.108 0 0 1 4.001 3.176Z" fill="url(#b)"/><defs><linearGradient id="a" x1="14.048" y1="7.348" x2="14.048" y2="22.428" gradientUnits="userSpaceOnUse"><stop stop-color="#FFC803"/><stop offset="1" stop-color="#FFA903"/></linearGradient><linearGradient id="b" x1="23.594" y1="11.567" x2="23.594" y2="28.622" gradientUnits="userSpaceOnUse"><stop stop-color="#FF7421"/><stop offset="1" stop-color="#EC5901"/></linearGradient></defs></svg>
